<svg width="24" height="24" fill="none" xmlns="http://www.w3.org/2000/svg"><path d="M6.667 0A6.674 6.674 0 000 6.667v10.666A6.674 6.674 0 006.667 24h10.666A6.674 6.674 0 0024 17.333V6.667A6.674 6.674 0 0017.333 0H6.667zm0 2.667h10.666c2.206 0 4 1.794 4 4v10.666c0 2.206-1.794 4-4 4H6.667c-2.206 0-4-1.794-4-4V6.667c0-2.206 1.794-4 4-4zm12 1.333a1.333 1.333 0 100 2.666 1.333 1.333 0 000-2.666zM12 5.333A6.674 6.674 0 005.333 12 6.674 6.674 0 0012 18.667 6.674 6.674 0 0018.667 12 6.674 6.674 0 0012 5.333zM12 8c2.205 0 4 1.795 4 4s-1.795 4-4 4-4-1.795-4-4 1.795-4 4-4z" fill="#462F29"/></svg>