<svg width="219" height="25" fill="none" xmlns="http://www.w3.org/2000/svg"><path d="M2.708 3.264C4.268 1.128 6.704.06 10.016.06c1.68 0 3.108.54 4.284 1.62 2.304 2.04 3.456 5.304 3.456 9.792 0 4.44-1.272 7.932-3.816 10.476-1.368 1.296-2.892 1.992-4.572 2.088-2.28 0-4.056-.78-5.328-2.34a14.898 14.898 0 01-2.664-5.076 19.714 19.714 0 01-.864-5.76c0-3.096.732-5.628 2.196-7.596zm10.836 1.872c-.768-1.392-2.028-2.088-3.78-2.088-3.216 0-5.22 1.524-6.012 4.572-.24.84-.36 1.788-.36 2.844 0 1.536.24 3.108.72 4.716.648 2.256 1.608 3.84 2.88 4.752.744.576 1.644.864 2.7.864 1.08 0 2.028-.468 2.844-1.404 1.464-1.656 2.196-4.344 2.196-8.064 0-2.736-.396-4.8-1.188-6.192zM23 18.348l.144 4.284v.036c0 .36-.168.672-.504.936a1.764 1.764 0 01-1.116.396c-.528 0-.792-.24-.792-.72-.096-.984-.144-5.46-.144-13.428 0-.768.456-1.368 1.368-1.8.912-.432 2.148-.648 3.708-.648 1.536 0 2.892.384 4.068 1.152 1.176.744 1.764 1.668 1.764 2.772 0 .504-.228 1.08-.684 1.728a6.256 6.256 0 01-1.476 1.584c-.48.336-1.212.78-2.196 1.332-.984.552-1.572.84-1.764.864a27.397 27.397 0 014.032 3.132c1.176 1.152 1.764 2.1 1.764 2.844 0 .528-.288.888-.864 1.08-.216.072-.372.108-.468.108-.36 0-.756-.264-1.188-.792-.312-.408-1.08-1.152-2.304-2.232-1.248-1.08-2.364-1.956-3.348-2.628zm.036-8.172c-.024.768-.036 2.424-.036 4.968.768 0 1.956-.384 3.564-1.152 1.584-.792 2.412-1.524 2.484-2.196 0-.6-.348-1.068-1.044-1.404-.672-.36-1.44-.54-2.304-.54-.912 0-1.8.108-2.664.324zm14.018-.324c1.56-1.632 3.492-2.448 5.796-2.448a6.19 6.19 0 012.808.648c.864.432 1.296.96 1.296 1.584 0 .336-.132.624-.396.864s-.576.36-.936.36c-.168 0-.492-.096-.972-.288-.768-.36-1.452-.54-2.052-.54-1.512 0-2.76.636-3.744 1.908-.96 1.248-1.44 2.652-1.44 4.212 0 1.536.336 2.82 1.008 3.852.696 1.056 1.476 1.584 2.34 1.584.888 0 1.608-.228 2.16-.684.576-.48.864-1.08.864-1.8 0-1.248-.228-1.872-.684-1.872-1.032 0-1.74-.072-2.124-.216-.36-.144-.54-.432-.54-.864 0-.864.384-1.332 1.152-1.404l1.008-.036c.768 0 1.404.096 1.908.288.744.288 1.212.744 1.404 1.368.36 1.464.54 2.856.54 4.176v.828c0 .792-.048 1.416-.144 1.872-.048.312-.156.528-.324.648-.144.12-.408.18-.792.18-.36 0-.636-.072-.828-.216-.192-.168-.324-.456-.396-.864-1.152.744-2.28 1.116-3.384 1.116-1.128 0-2.16-.396-3.096-1.188-.888-.792-1.572-1.776-2.052-2.952a10.26 10.26 0 01-.684-3.672c0-2.688.768-4.836 2.304-6.444zm16.665 7.704c-.696 2.544-1.104 4.368-1.224 5.472-.096.6-.528.9-1.296.9-.744 0-1.116-.312-1.116-.936 0-1.44.696-4.32 2.088-8.64.576-1.896 1.272-3.552 2.088-4.968.744-1.32 1.488-1.98 2.232-1.98.384 0 .72.228 1.008.684.24.384.756 1.428 1.548 3.132a35.394 35.394 0 011.908 5.148c.456 1.608 1.008 3.816 1.656 6.624a.923.923 0 01-.324.72 1.15 1.15 0 01-.792.288c-.792 0-1.272-.336-1.44-1.008l-1.26-4.932c-2.088 0-3.78-.168-5.076-.504zm4.464-1.908c-.504-1.824-1.104-3.468-1.8-4.932-.792 1.32-1.44 2.82-1.944 4.5 1.056.288 2.304.432 3.744.432zm16.072 5.688c-1.824-3.456-3.732-6.312-5.724-8.568l-.396 8.748-.036.792c0 .408-.012.66-.036.756-.096.648-.516.972-1.26.972a1.24 1.24 0 01-.792-.288 1.216 1.216 0 01-.36-.792l.288-10.08v-1.188c0-.888.06-1.584.18-2.088.192-.648.624-.972 1.296-.972.36 0 .792.24 1.296.72.504.456 1.224 1.284 2.16 2.484 2.256 2.784 3.984 5.436 5.184 7.956-.024-2.952-.108-5.544-.252-7.776l-.18-2.952v-.288c.192-.912.684-1.368 1.476-1.368.312 0 .6.144.864.432.264.264.396.6.396 1.008l.18 13.392c0 1.248-.504 1.872-1.512 1.872-.6 0-1.068-.204-1.404-.612-.408-.504-.72-.96-.936-1.368a21.92 21.92 0 00-.432-.792zm9.231 2.304c-.336.24-.684.36-1.044.36-.672 0-1.008-.288-1.008-.864l.144-14.652c0-.336.108-.6.324-.792.24-.216.54-.324.9-.324s.66.084.9.252c.264.192.408.48.432.864.024.264.036 1.14.036 2.628 0 6.552-.048 10.452-.144 11.7-.024.288-.204.564-.54.828zm16.07-13.608c-.336.288-.684.432-1.044.432l-2.916-.36c-3.888 0-5.832 1.944-5.832 5.832 0 1.968.588 3.528 1.764 4.68.576.6 1.176.9 1.8.9.6 0 1.692-.276 3.276-.828 1.584-.552 2.424-.828 2.52-.828.648 0 .972.3.972.9 0 .504-.276.936-.828 1.296-3.024 1.272-5.196 1.908-6.516 1.908-.816 0-1.62-.264-2.412-.792a5.695 5.695 0 01-1.872-2.052 10.654 10.654 0 01-1.404-5.328c0-2.568.768-4.584 2.304-6.048 1.56-1.488 3.528-2.232 5.904-2.232a12.8 12.8 0 014.14.684v.036c.432.192.648.48.648.864 0 .312-.168.624-.504.936zM114.052.6c.672 0 1.008.324 1.008.972l-.144 8.64c1.8.312 3.516.468 5.148.468 1.704 0 2.7-.012 2.988-.036-.048-2.448-.072-4.2-.072-5.256v-3.42c0-.552.024-.924.072-1.116.072-.192.24-.348.504-.468.288-.144.66-.216 1.116-.216.72 0 1.08.432 1.08 1.296v12.744c0 2.28-.06 5.184-.18 8.712-.048.696-.636 1.044-1.764 1.044-.576 0-.864-.348-.864-1.044l.144-9.54a39.018 39.018 0 01-8.172-.36c0 3.168.144 6.48.432 9.936.024.384-.144.684-.504.9-.384.192-.84.288-1.368.288-.528 0-.816-.276-.864-.828a106.67 106.67 0 01-.468-10.08l.216-11.232c0-.456.168-.804.504-1.044a1.99 1.99 0 011.188-.36zm18.136 16.956c-.696 2.544-1.104 4.368-1.224 5.472-.096.6-.528.9-1.296.9-.744 0-1.116-.312-1.116-.936 0-1.44.696-4.32 2.088-8.64.576-1.896 1.272-3.552 2.088-4.968.744-1.32 1.488-1.98 2.232-1.98.384 0 .72.228 1.008.684.24.384.756 1.428 1.548 3.132a35.394 35.394 0 011.908 5.148c.456 1.608 1.008 3.816 1.656 6.624a.923.923 0 01-.324.72 1.15 1.15 0 01-.792.288c-.792 0-1.272-.336-1.44-1.008l-1.26-4.932c-2.088 0-3.78-.168-5.076-.504zm4.464-1.908c-.504-1.824-1.104-3.468-1.8-4.932-.792 1.32-1.44 2.82-1.944 4.5 1.056.288 2.304.432 3.744.432zm10.203 2.7l.144 4.284v.036c0 .36-.168.672-.504.936a1.764 1.764 0 01-1.116.396c-.528 0-.792-.24-.792-.72-.096-.984-.144-5.46-.144-13.428 0-.768.456-1.368 1.368-1.8.912-.432 2.148-.648 3.708-.648 1.536 0 2.892.384 4.068 1.152 1.176.744 1.764 1.668 1.764 2.772 0 .504-.228 1.08-.684 1.728a6.256 6.256 0 01-1.476 1.584c-.48.336-1.212.78-2.196 1.332-.984.552-1.572.84-1.764.864a27.397 27.397 0 014.032 3.132c1.176 1.152 1.764 2.1 1.764 2.844 0 .528-.288.888-.864 1.08-.216.072-.372.108-.468.108-.36 0-.756-.264-1.188-.792-.312-.408-1.08-1.152-2.304-2.232-1.248-1.08-2.364-1.956-3.348-2.628zm.036-8.172c-.024.768-.036 2.424-.036 4.968.768 0 1.956-.384 3.564-1.152 1.584-.792 2.412-1.524 2.484-2.196 0-.6-.348-1.068-1.044-1.404-.672-.36-1.44-.54-2.304-.54-.912 0-1.8.108-2.664.324zm24.278-3.312c.312-.216.636-.324.972-.324.696 0 1.044.336 1.044 1.008.072 4.272.108 9.252.108 14.94 0 .36-.144.708-.432 1.044-.24.312-.672.468-1.296.468-.6 0-.9-.396-.9-1.188 0-2.136-.024-4.02-.072-5.652-.024-.84-.036-2.184-.036-4.032-.888 1.08-1.752 1.836-2.592 2.268-.816.432-1.908.648-3.276.648-1.392 0-2.46-.372-3.204-1.116 0 4.032-.024 6.552-.072 7.56-.024 1.008-.588 1.512-1.692 1.512-.648 0-.972-.348-.972-1.044l.108-6.66V9.204c0-.36.132-.684.396-.972.264-.312.564-.468.9-.468.384 0 .708.084.972.252.264.168.408.396.432.684a5.898 5.898 0 001.044 3.276c.672.96 1.428 1.44 2.268 1.44 2.424 0 4.104-1.308 5.04-3.924l.288-.936c.216-.624.348-.972.396-1.044.096-.24.288-.456.576-.648zm6.569 2.592c1.296-1.272 3.084-1.908 5.364-1.908 1.8 0 3.24.696 4.32 2.088 1.08 1.368 1.62 3.228 1.62 5.58s-.6 4.404-1.8 6.156c-1.176 1.728-2.7 2.592-4.572 2.592-2.016 0-3.66-.864-4.932-2.592-1.272-1.752-1.908-3.864-1.908-6.336 0-2.448.636-4.308 1.908-5.58zm1.8 9.864c.84 1.344 1.968 2.016 3.384 2.016.816 0 1.512-.348 2.088-1.044.96-1.176 1.44-2.736 1.44-4.68 0-1.968-.288-3.384-.864-4.248-.552-.888-1.512-1.332-2.88-1.332-1.392 0-2.472.432-3.24 1.296-.768.84-1.152 2.052-1.152 3.636s.408 3.036 1.224 4.356zm21.103 2.016c-1.824-3.456-3.732-6.312-5.724-8.568l-.396 8.748-.036.792c0 .408-.012.66-.036.756-.096.648-.516.972-1.26.972a1.24 1.24 0 01-.792-.288 1.216 1.216 0 01-.36-.792l.288-10.08v-1.188c0-.888.06-1.584.18-2.088.192-.648.624-.972 1.296-.972.36 0 .792.24 1.296.72.504.456 1.224 1.284 2.16 2.484 2.256 2.784 3.984 5.436 5.184 7.956-.024-2.952-.108-5.544-.252-7.776l-.18-2.952v-.288c.192-.912.684-1.368 1.476-1.368.312 0 .6.144.864.432.264.264.396.6.396 1.008l.18 13.392c0 1.248-.504 1.872-1.512 1.872-.6 0-1.068-.204-1.404-.612-.408-.504-.72-.96-.936-1.368a21.92 21.92 0 00-.432-.792zM217.289 7.44c.192-.12.348-.18.468-.18.624.072.936.36.936.864 0 .6-.324 1.428-.972 2.484l-.936 1.44-.864 1.296-.504.756c-.408.528-.78 1.08-1.116 1.656v3.132c0 2.16-.072 3.552-.216 4.176-.144.624-.588.936-1.332.936-.216 0-.372-.048-.468-.144-.264-.264-.396-1.056-.396-2.376l.036-3.888c0-.624-.036-1.26-.108-1.908-1.032-1.344-2.376-3.528-4.032-6.552a.755.755 0 01-.108-.396c0-.168.072-.36.216-.576.336-.504.744-.756 1.224-.756.336 0 1.212 1.212 2.628 3.636.576 1.008 1.044 1.776 1.404 2.304l1.368-2.088 1.116-1.8c.744-1.152 1.296-1.824 1.656-2.016z" fill="#5C8A12"/></svg>