<svg width="60" height="60" fill="none" xmlns="http://www.w3.org/2000/svg"><path d="M51.43 7.53c-.83-.089-1.733.04-2.64.4-1.126.442-18.754 7.857-35.186 14.775l-5.43 2.285c-2.103.853-3.164 2.239-3.164 4.107 0 1.307.553 3.08 3.193 4.125l9.165 3.672c.793 2.378 2.633 7.898 3.096 9.366.275.87.97 3.061 2.725 3.574.36.122.735.185 1.118.185 1.107 0 1.905-.515 2.295-.815l5.825-4.927 7.075 6.543c.273.278 1.715 1.68 3.652 1.68 2.418 0 4.252-2.013 4.634-3.96.208-1.068 7.031-35.323 7.031-35.318.613-2.747-.489-4.172-1.196-4.78-.606-.519-1.361-.825-2.192-.913zm-1.655 5.4c-.942 4.724-6.08 30.515-6.86 34.233l-10.342-9.566-7.016 5.943 1.943-7.603s13.406-13.57 14.214-14.36c.65-.633.786-.854.786-1.074 0-.293-.15-.503-.498-.503-.313 0-.737.3-.962.44-2.858 1.781-15.03 8.715-21.02 12.123l-8.692-3.471 4.219-1.773c10.747-4.525 29.888-12.584 34.228-14.39z" fill="#462F29"/></svg>