<svg width="60" height="60" fill="none" xmlns="http://www.w3.org/2000/svg"><path d="M30.03 5C16.263 5 5.058 16.196 5.053 29.96a24.909 24.909 0 003.335 12.481L5 55l13.081-3.09a24.952 24.952 0 0011.934 3.036h.01c13.762 0 24.963-11.198 24.97-24.96.005-6.673-2.59-12.947-7.305-17.667C42.975 7.602 36.71 5.002 30.03 5zm-.006 5a19.877 19.877 0 0114.131 5.854 19.823 19.823 0 015.84 14.127c-.005 11.01-8.96 19.965-19.975 19.965a19.997 19.997 0 01-9.541-2.426l-1.685-.918-1.86.439-4.922 1.162 1.2-4.463.543-2.002-1.035-1.797a19.949 19.949 0 01-2.666-9.98C10.059 18.956 19.017 10 30.024 10zm-8.833 8.438c-.417 0-1.092.156-1.665.78-.572.623-2.187 2.13-2.187 5.2 0 3.07 2.236 6.038 2.549 6.456.31.415 4.316 6.914 10.659 9.414 5.27 2.078 6.34 1.668 7.485 1.563 1.145-.103 3.694-1.507 4.214-2.964.52-1.458.521-2.712.366-2.969-.155-.26-.571-.415-1.196-.728-.622-.312-3.69-1.818-4.263-2.026-.572-.207-.99-.312-1.406.313-.415.625-1.608 2.026-1.973 2.441-.365.418-.727.474-1.352.161-.625-.315-2.635-.976-5.02-3.1-1.855-1.653-3.106-3.692-3.471-4.317-.363-.622-.035-.964.278-1.274.28-.28.62-.73.933-1.094.31-.365.417-.625.625-1.04.207-.415.1-.781-.054-1.094-.155-.312-1.369-3.394-1.924-4.629-.467-1.037-.961-1.061-1.406-1.079-.363-.015-.777-.015-1.192-.015z" fill="#462F29"/></svg>