<svg width="26" height="23" fill="none" xmlns="http://www.w3.org/2000/svg"><path d="M5.417 2.944a13.37 13.37 0 00.625 3.166L4.375 7.577a16.235 16.235 0 01-1.056-4.633h2.098zM19.11 17.636a20 20 0 003.611.55v1.82a24.018 24.018 0 01-5.278-.916l1.667-1.454zM6.75.5H1.889C1.125.5.5 1.05.5 1.722.5 13.2 11.07 22.5 24.111 22.5c.764 0 1.389-.55 1.389-1.222v-4.266c0-.672-.625-1.222-1.389-1.222-1.722 0-3.403-.244-4.958-.697a1.311 1.311 0 00-.43-.06 1.53 1.53 0 00-.987.354l-3.055 2.689c-3.931-1.773-7.153-4.596-9.153-8.055l3.055-2.689c.39-.342.5-.819.348-1.246a12.374 12.374 0 01-.792-4.364C8.139 1.05 7.514.5 6.75.5z" fill="#462F29"/></svg>