<svg width="60" height="60" fill="none" xmlns="http://www.w3.org/2000/svg"><path d="M20 7.5C13.107 7.5 7.5 13.107 7.5 20v20c0 6.892 5.607 12.5 12.5 12.5h20c6.892 0 12.5-5.608 12.5-12.5V20c0-6.893-5.608-12.5-12.5-12.5H20zm0 5h20c4.135 0 7.5 3.365 7.5 7.5v20c0 4.135-3.365 7.5-7.5 7.5H20c-4.135 0-7.5-3.365-7.5-7.5V20c0-4.135 3.365-7.5 7.5-7.5zM42.5 15a2.5 2.5 0 100 5 2.5 2.5 0 000-5zM30 17.5c-6.892 0-12.5 5.608-12.5 12.5S23.108 42.5 30 42.5 42.5 36.892 42.5 30 36.892 17.5 30 17.5zm0 5c4.135 0 7.5 3.365 7.5 7.5s-3.365 7.5-7.5 7.5-7.5-3.365-7.5-7.5 3.365-7.5 7.5-7.5z" fill="#462F29"/></svg>