<svg width="24" height="22" fill="none" xmlns="http://www.w3.org/2000/svg"><path d="M22.287.013a2.645 2.645 0 00-1.268.196c-.54.216-9.004 3.842-16.893 7.224L1.519 8.55C.51 8.967 0 9.645 0 10.558c0 .639.266 1.506 1.533 2.017l4.4 1.795c.38 1.163 1.265 3.862 1.487 4.579.132.425.465 1.497 1.308 1.747.173.06.353.091.537.091a1.79 1.79 0 001.101-.398l2.797-2.41 3.397 3.2c.13.135.823.821 1.754.821 1.16 0 2.04-.984 2.224-1.936.1-.522 3.376-17.27 3.376-17.267.294-1.344-.235-2.04-.574-2.338a1.89 1.89 0 00-1.053-.446zm-.794 2.64c-.453 2.31-2.92 14.92-3.294 16.738l-4.965-4.677-3.37 2.905.934-3.717s6.436-6.634 6.824-7.02c.312-.31.378-.418.378-.526 0-.143-.073-.246-.24-.246-.15 0-.353.147-.461.215-1.373.871-7.216 4.261-10.093 5.928l-4.172-1.698 2.025-.866a9055.08 9055.08 0 0116.433-7.036z" fill="#462F29"/></svg>