<svg width="26" height="23" viewBox="0 0 26 23" fill="none" xmlns="http://www.w3.org/2000/svg">
<path d="M5.41667 2.94444C5.5 4.03222 5.70833 5.09556 6.04167 6.11L4.375 7.57667C3.80556 6.11 3.44444 4.55778 3.31944 2.94444H5.41667ZM19.1111 17.6356C20.2917 17.9289 21.5 18.1122 22.7222 18.1856V20.0067C20.8889 19.8967 19.125 19.5789 17.4444 19.09L19.1111 17.6356ZM6.75 0.5H1.88889C1.125 0.5 0.5 1.05 0.5 1.72222C0.5 13.1989 11.0694 22.5 24.1111 22.5C24.875 22.5 25.5 21.95 25.5 21.2778V17.0122C25.5 16.34 24.875 15.79 24.1111 15.79C22.3889 15.79 20.7083 15.5456 19.1528 15.0933C19.0139 15.0444 18.8611 15.0322 18.7222 15.0322C18.3611 15.0322 18.0139 15.1544 17.7361 15.3867L14.6806 18.0756C10.75 16.3033 7.52778 13.48 5.52778 10.0211L8.58333 7.33222C8.97222 6.99 9.08333 6.51333 8.93055 6.08556C8.41667 4.71667 8.13889 3.25 8.13889 1.72222C8.13889 1.05 7.51389 0.5 6.75 0.5Z" fill="#462F29"/>
</svg>
