<svg width="60" height="60" viewBox="0 0 60 60" fill="none" xmlns="http://www.w3.org/2000/svg">
<g id="Instagram logo">
<path id="Vector" d="M20 7.5C13.1075 7.5 7.5 13.1075 7.5 20V40C7.5 46.8925 13.1075 52.5 20 52.5H40C46.8925 52.5 52.5 46.8925 52.5 40V20C52.5 13.1075 46.8925 7.5 40 7.5H20ZM20 12.5H40C44.135 12.5 47.5 15.865 47.5 20V40C47.5 44.135 44.135 47.5 40 47.5H20C15.865 47.5 12.5 44.135 12.5 40V20C12.5 15.865 15.865 12.5 20 12.5ZM42.5 15C41.837 15 41.2011 15.2634 40.7322 15.7322C40.2634 16.2011 40 16.837 40 17.5C40 18.163 40.2634 18.7989 40.7322 19.2678C41.2011 19.7366 41.837 20 42.5 20C43.163 20 43.7989 19.7366 44.2678 19.2678C44.7366 18.7989 45 18.163 45 17.5C45 16.837 44.7366 16.2011 44.2678 15.7322C43.7989 15.2634 43.163 15 42.5 15ZM30 17.5C23.1075 17.5 17.5 23.1075 17.5 30C17.5 36.8925 23.1075 42.5 30 42.5C36.8925 42.5 42.5 36.8925 42.5 30C42.5 23.1075 36.8925 17.5 30 17.5ZM30 22.5C34.135 22.5 37.5 25.865 37.5 30C37.5 34.135 34.135 37.5 30 37.5C25.865 37.5 22.5 34.135 22.5 30C22.5 25.865 25.865 22.5 30 22.5Z" fill="#462F29"/>
</g>
</svg>
