<svg width="219" height="25" viewBox="0 0 219 25" fill="none" xmlns="http://www.w3.org/2000/svg">
<path d="M2.708 3.264C4.268 1.128 6.704 0.0599992 10.016 0.0599992C11.696 0.0599992 13.124 0.599999 14.3 1.68C16.604 3.72 17.756 6.984 17.756 11.472C17.756 15.912 16.484 19.404 13.94 21.948C12.572 23.244 11.048 23.94 9.368 24.036C7.088 24.036 5.312 23.256 4.04 21.696C2.84 20.208 1.952 18.516 1.376 16.62C0.8 14.724 0.512 12.804 0.512 10.86C0.512 7.764 1.244 5.232 2.708 3.264ZM13.544 5.136C12.776 3.744 11.516 3.048 9.764 3.048C6.548 3.048 4.544 4.572 3.752 7.62C3.512 8.46 3.392 9.408 3.392 10.464C3.392 12 3.632 13.572 4.112 15.18C4.76 17.436 5.72 19.02 6.992 19.932C7.736 20.508 8.636 20.796 9.692 20.796C10.772 20.796 11.72 20.328 12.536 19.392C14 17.736 14.732 15.048 14.732 11.328C14.732 8.592 14.336 6.528 13.544 5.136ZM22.9999 18.348C23.0239 19.044 23.0719 20.472 23.1439 22.632V22.668C23.1439 23.028 22.9759 23.34 22.6399 23.604C22.3039 23.868 21.9319 24 21.5239 24C20.9959 24 20.7319 23.76 20.7319 23.28C20.6359 22.296 20.5879 17.82 20.5879 9.852C20.5879 9.084 21.0439 8.484 21.9559 8.052C22.8679 7.62 24.1039 7.404 25.6639 7.404C27.1999 7.404 28.5559 7.788 29.7319 8.556C30.9079 9.3 31.4959 10.224 31.4959 11.328C31.4959 11.832 31.2679 12.408 30.8119 13.056C30.3799 13.704 29.8879 14.232 29.3359 14.64C28.8559 14.976 28.1239 15.42 27.1399 15.972C26.1559 16.524 25.5679 16.812 25.3759 16.836C26.8399 17.772 28.1839 18.816 29.4079 19.968C30.5839 21.12 31.1719 22.068 31.1719 22.812C31.1719 23.34 30.8839 23.7 30.3079 23.892C30.0919 23.964 29.9359 24 29.8399 24C29.4799 24 29.0839 23.736 28.6519 23.208C28.3399 22.8 27.5719 22.056 26.3479 20.976C25.0999 19.896 23.9839 19.02 22.9999 18.348ZM23.0359 10.176C23.0119 10.944 22.9999 12.6 22.9999 15.144C23.7679 15.144 24.9559 14.76 26.5639 13.992C28.1479 13.2 28.9759 12.468 29.0479 11.796C29.0479 11.196 28.6999 10.728 28.0039 10.392C27.3319 10.032 26.5639 9.852 25.6999 9.852C24.7879 9.852 23.8999 9.96 23.0359 10.176ZM37.054 9.852C38.614 8.22 40.546 7.404 42.85 7.404C43.858 7.404 44.794 7.62 45.658 8.052C46.522 8.484 46.954 9.012 46.954 9.636C46.954 9.972 46.822 10.26 46.558 10.5C46.294 10.74 45.982 10.86 45.622 10.86C45.454 10.86 45.13 10.764 44.65 10.572C43.882 10.212 43.198 10.032 42.598 10.032C41.086 10.032 39.838 10.668 38.854 11.94C37.894 13.188 37.414 14.592 37.414 16.152C37.414 17.688 37.75 18.972 38.422 20.004C39.118 21.06 39.898 21.588 40.762 21.588C41.65 21.588 42.37 21.36 42.922 20.904C43.498 20.424 43.786 19.824 43.786 19.104C43.786 17.856 43.558 17.232 43.102 17.232C42.07 17.232 41.362 17.16 40.978 17.016C40.618 16.872 40.438 16.584 40.438 16.152C40.438 15.288 40.822 14.82 41.59 14.748L42.598 14.712C43.366 14.712 44.002 14.808 44.506 15C45.25 15.288 45.718 15.744 45.91 16.368C46.27 17.832 46.45 19.224 46.45 20.544V21.372C46.45 22.164 46.402 22.788 46.306 23.244C46.258 23.556 46.15 23.772 45.982 23.892C45.838 24.012 45.574 24.072 45.19 24.072C44.83 24.072 44.554 24 44.362 23.856C44.17 23.688 44.038 23.4 43.966 22.992C42.814 23.736 41.686 24.108 40.582 24.108C39.454 24.108 38.422 23.712 37.486 22.92C36.598 22.128 35.914 21.144 35.434 19.968C34.978 18.768 34.75 17.544 34.75 16.296C34.75 13.608 35.518 11.46 37.054 9.852ZM53.7192 17.556C53.0232 20.1 52.6152 21.924 52.4952 23.028C52.3992 23.628 51.9672 23.928 51.1992 23.928C50.4552 23.928 50.0832 23.616 50.0832 22.992C50.0832 21.552 50.7792 18.672 52.1712 14.352C52.7472 12.456 53.4432 10.8 54.2592 9.384C55.0032 8.064 55.7472 7.404 56.4912 7.404C56.8752 7.404 57.2112 7.632 57.4992 8.088C57.7392 8.472 58.2552 9.516 59.0472 11.22C59.8392 12.948 60.4752 14.664 60.9552 16.368C61.4112 17.976 61.9632 20.184 62.6112 22.992C62.6112 23.28 62.5032 23.52 62.2872 23.712C62.0712 23.904 61.8072 24 61.4952 24C60.7032 24 60.2232 23.664 60.0552 22.992L58.7952 18.06C56.7072 18.06 55.0152 17.892 53.7192 17.556ZM58.1832 15.648C57.6792 13.824 57.0792 12.18 56.3832 10.716C55.5912 12.036 54.9432 13.536 54.4392 15.216C55.4952 15.504 56.7432 15.648 58.1832 15.648ZM74.2546 21.336C72.4306 17.88 70.5226 15.024 68.5306 12.768L68.1346 21.516L68.0986 22.308C68.0986 22.716 68.0866 22.968 68.0626 23.064C67.9666 23.712 67.5466 24.036 66.8026 24.036C66.5146 24.036 66.2506 23.94 66.0106 23.748C65.7946 23.532 65.6746 23.268 65.6506 22.956L65.9386 12.876V11.688C65.9386 10.8 65.9986 10.104 66.1186 9.6C66.3106 8.952 66.7426 8.628 67.4146 8.628C67.7746 8.628 68.2066 8.868 68.7106 9.348C69.2146 9.804 69.9346 10.632 70.8706 11.832C73.1266 14.616 74.8546 17.268 76.0546 19.788C76.0306 16.836 75.9466 14.244 75.8026 12.012L75.6226 9.06V8.772C75.8146 7.86 76.3066 7.404 77.0986 7.404C77.4106 7.404 77.6986 7.548 77.9626 7.836C78.2266 8.1 78.3586 8.436 78.3586 8.844L78.5386 22.236C78.5386 23.484 78.0346 24.108 77.0266 24.108C76.4266 24.108 75.9586 23.904 75.6226 23.496C75.2146 22.992 74.9026 22.536 74.6866 22.128C74.4706 21.72 74.3266 21.456 74.2546 21.336ZM83.4861 23.64C83.1501 23.88 82.8021 24 82.4421 24C81.7701 24 81.4341 23.712 81.4341 23.136L81.5781 8.484C81.5781 8.148 81.6861 7.884 81.9021 7.692C82.1421 7.476 82.4421 7.368 82.8021 7.368C83.1621 7.368 83.4621 7.452 83.7021 7.62C83.9661 7.812 84.1101 8.1 84.1341 8.484C84.1581 8.748 84.1701 9.624 84.1701 11.112C84.1701 17.664 84.1221 21.564 84.0261 22.812C84.0021 23.1 83.8221 23.376 83.4861 23.64ZM99.5562 10.032C99.2202 10.32 98.8722 10.464 98.5122 10.464L95.5962 10.104C91.7082 10.104 89.7642 12.048 89.7642 15.936C89.7642 17.904 90.3522 19.464 91.5282 20.616C92.1042 21.216 92.7042 21.516 93.3282 21.516C93.9282 21.516 95.0202 21.24 96.6042 20.688C98.1882 20.136 99.0282 19.86 99.1242 19.86C99.7722 19.86 100.096 20.16 100.096 20.76C100.096 21.264 99.8202 21.696 99.2682 22.056C96.2442 23.328 94.0722 23.964 92.7522 23.964C91.9362 23.964 91.1322 23.7 90.3402 23.172C89.5482 22.644 88.9242 21.96 88.4682 21.12C87.5322 19.464 87.0642 17.688 87.0642 15.792C87.0642 13.224 87.8322 11.208 89.3682 9.744C90.9282 8.256 92.8962 7.512 95.2722 7.512C96.6882 7.512 98.0682 7.74 99.4122 8.196V8.232C99.8442 8.424 100.06 8.712 100.06 9.096C100.06 9.408 99.8922 9.72 99.5562 10.032ZM114.052 0.599999C114.724 0.599999 115.06 0.923999 115.06 1.572L114.916 10.212C116.716 10.524 118.432 10.68 120.064 10.68C121.768 10.68 122.764 10.668 123.052 10.644C123.004 8.196 122.98 6.444 122.98 5.388V1.968C122.98 1.416 123.004 1.044 123.052 0.852C123.124 0.659999 123.292 0.503999 123.556 0.383999C123.844 0.239998 124.216 0.167998 124.672 0.167998C125.392 0.167998 125.752 0.599998 125.752 1.464V14.208C125.752 16.488 125.692 19.392 125.572 22.92C125.524 23.616 124.936 23.964 123.808 23.964C123.232 23.964 122.944 23.616 122.944 22.92L123.088 13.38C122.272 13.428 121.48 13.452 120.712 13.452C118.768 13.452 116.836 13.308 114.916 13.02C114.916 16.188 115.06 19.5 115.348 22.956C115.372 23.34 115.204 23.64 114.844 23.856C114.46 24.048 114.004 24.144 113.476 24.144C112.948 24.144 112.66 23.868 112.612 23.316C112.3 20.028 112.144 16.668 112.144 13.236L112.36 2.004C112.36 1.548 112.528 1.2 112.864 0.959998C113.2 0.719999 113.596 0.599999 114.052 0.599999ZM132.188 17.556C131.492 20.1 131.084 21.924 130.964 23.028C130.868 23.628 130.436 23.928 129.668 23.928C128.924 23.928 128.552 23.616 128.552 22.992C128.552 21.552 129.248 18.672 130.64 14.352C131.216 12.456 131.912 10.8 132.728 9.384C133.472 8.064 134.216 7.404 134.96 7.404C135.344 7.404 135.68 7.632 135.968 8.088C136.208 8.472 136.724 9.516 137.516 11.22C138.308 12.948 138.944 14.664 139.424 16.368C139.88 17.976 140.432 20.184 141.08 22.992C141.08 23.28 140.972 23.52 140.756 23.712C140.54 23.904 140.276 24 139.964 24C139.172 24 138.692 23.664 138.524 22.992L137.264 18.06C135.176 18.06 133.484 17.892 132.188 17.556ZM136.652 15.648C136.148 13.824 135.548 12.18 134.852 10.716C134.06 12.036 133.412 13.536 132.908 15.216C133.964 15.504 135.212 15.648 136.652 15.648ZM146.855 18.348C146.879 19.044 146.927 20.472 146.999 22.632V22.668C146.999 23.028 146.831 23.34 146.495 23.604C146.159 23.868 145.787 24 145.379 24C144.851 24 144.587 23.76 144.587 23.28C144.491 22.296 144.443 17.82 144.443 9.852C144.443 9.084 144.899 8.484 145.811 8.052C146.723 7.62 147.959 7.404 149.519 7.404C151.055 7.404 152.411 7.788 153.587 8.556C154.763 9.3 155.351 10.224 155.351 11.328C155.351 11.832 155.123 12.408 154.667 13.056C154.235 13.704 153.743 14.232 153.191 14.64C152.711 14.976 151.979 15.42 150.995 15.972C150.011 16.524 149.423 16.812 149.231 16.836C150.695 17.772 152.039 18.816 153.263 19.968C154.439 21.12 155.027 22.068 155.027 22.812C155.027 23.34 154.739 23.7 154.163 23.892C153.947 23.964 153.791 24 153.695 24C153.335 24 152.939 23.736 152.507 23.208C152.195 22.8 151.427 22.056 150.203 20.976C148.955 19.896 147.839 19.02 146.855 18.348ZM146.891 10.176C146.867 10.944 146.855 12.6 146.855 15.144C147.623 15.144 148.811 14.76 150.419 13.992C152.003 13.2 152.831 12.468 152.903 11.796C152.903 11.196 152.555 10.728 151.859 10.392C151.187 10.032 150.419 9.852 149.555 9.852C148.643 9.852 147.755 9.96 146.891 10.176ZM171.169 6.864C171.481 6.648 171.805 6.54 172.141 6.54C172.837 6.54 173.185 6.876 173.185 7.548C173.257 11.82 173.293 16.8 173.293 22.488C173.293 22.848 173.149 23.196 172.861 23.532C172.621 23.844 172.189 24 171.565 24C170.965 24 170.665 23.604 170.665 22.812C170.665 20.676 170.641 18.792 170.593 17.16C170.569 16.32 170.557 14.976 170.557 13.128C169.669 14.208 168.805 14.964 167.965 15.396C167.149 15.828 166.057 16.044 164.689 16.044C163.297 16.044 162.229 15.672 161.485 14.928C161.485 18.96 161.461 21.48 161.413 22.488C161.389 23.496 160.825 24 159.721 24C159.073 24 158.749 23.652 158.749 22.956L158.857 16.296V9.204C158.857 8.844 158.989 8.52 159.253 8.232C159.517 7.92 159.817 7.764 160.153 7.764C160.537 7.764 160.861 7.848 161.125 8.016C161.389 8.184 161.533 8.412 161.557 8.7C161.581 9.9 161.929 10.992 162.601 11.976C163.273 12.936 164.029 13.416 164.869 13.416C167.293 13.416 168.973 12.108 169.909 9.492L170.197 8.556C170.413 7.932 170.545 7.584 170.593 7.512C170.689 7.272 170.881 7.056 171.169 6.864ZM177.738 9.456C179.034 8.184 180.822 7.548 183.102 7.548C184.902 7.548 186.342 8.244 187.422 9.636C188.502 11.004 189.042 12.864 189.042 15.216C189.042 17.568 188.442 19.62 187.242 21.372C186.066 23.1 184.542 23.964 182.67 23.964C180.654 23.964 179.01 23.1 177.738 21.372C176.466 19.62 175.83 17.508 175.83 15.036C175.83 12.588 176.466 10.728 177.738 9.456ZM179.538 19.32C180.378 20.664 181.506 21.336 182.922 21.336C183.738 21.336 184.434 20.988 185.01 20.292C185.97 19.116 186.45 17.556 186.45 15.612C186.45 13.644 186.162 12.228 185.586 11.364C185.034 10.476 184.074 10.032 182.706 10.032C181.314 10.032 180.234 10.464 179.466 11.328C178.698 12.168 178.314 13.38 178.314 14.964C178.314 16.548 178.722 18 179.538 19.32ZM200.641 21.336C198.817 17.88 196.909 15.024 194.917 12.768L194.521 21.516L194.485 22.308C194.485 22.716 194.473 22.968 194.449 23.064C194.353 23.712 193.933 24.036 193.189 24.036C192.901 24.036 192.637 23.94 192.397 23.748C192.181 23.532 192.061 23.268 192.037 22.956L192.325 12.876V11.688C192.325 10.8 192.385 10.104 192.505 9.6C192.697 8.952 193.129 8.628 193.801 8.628C194.161 8.628 194.593 8.868 195.097 9.348C195.601 9.804 196.321 10.632 197.257 11.832C199.513 14.616 201.241 17.268 202.441 19.788C202.417 16.836 202.333 14.244 202.189 12.012L202.009 9.06V8.772C202.201 7.86 202.693 7.404 203.485 7.404C203.797 7.404 204.085 7.548 204.349 7.836C204.613 8.1 204.745 8.436 204.745 8.844L204.925 22.236C204.925 23.484 204.421 24.108 203.413 24.108C202.813 24.108 202.345 23.904 202.009 23.496C201.601 22.992 201.289 22.536 201.073 22.128C200.857 21.72 200.713 21.456 200.641 21.336ZM217.289 7.44C217.481 7.32 217.637 7.26 217.757 7.26C218.381 7.332 218.693 7.62 218.693 8.124C218.693 8.724 218.369 9.552 217.721 10.608L216.785 12.048L215.921 13.344L215.417 14.1C215.009 14.628 214.637 15.18 214.301 15.756V18.888C214.301 21.048 214.229 22.44 214.085 23.064C213.941 23.688 213.497 24 212.753 24C212.537 24 212.381 23.952 212.285 23.856C212.021 23.592 211.889 22.8 211.889 21.48L211.925 17.592C211.925 16.968 211.889 16.332 211.817 15.684C210.785 14.34 209.441 12.156 207.785 9.132C207.713 9.012 207.677 8.88 207.677 8.736C207.677 8.568 207.749 8.376 207.893 8.16C208.229 7.656 208.637 7.404 209.117 7.404C209.453 7.404 210.329 8.616 211.745 11.04C212.321 12.048 212.789 12.816 213.149 13.344L214.517 11.256L215.633 9.456C216.377 8.304 216.929 7.632 217.289 7.44Z" fill="#5C8A12"/>
</svg>
