<svg width="60" height="60" viewBox="0 0 60 60" fill="none" xmlns="http://www.w3.org/2000/svg">
<g id="Telegram App">
<path id="Vector" d="M51.4307 7.52908C50.5997 7.44096 49.6966 7.57072 48.7891 7.92947C47.6641 8.37197 30.036 15.7874 13.6035 22.7049L8.17383 24.99C6.07133 25.8425 5.00977 27.229 5.00977 29.0965C5.00977 30.404 5.56313 32.1774 8.20312 33.2224L17.3682 36.8943C18.1607 39.2718 20.0014 44.792 20.4639 46.2596C20.7389 47.1296 21.4335 49.3213 23.1885 49.8338C23.5485 49.9563 23.9241 50.0193 24.3066 50.0193C25.4141 50.0193 26.2116 49.5039 26.6016 49.2039L32.4268 44.2771L39.502 50.8201C39.7745 51.0976 41.2168 52.4998 43.1543 52.4998C45.5718 52.4998 47.4056 50.4873 47.7881 48.5398C47.9956 47.4723 54.8193 13.2174 54.8193 13.2224C55.4318 10.4749 54.3305 9.04967 53.623 8.44217C53.0168 7.92342 52.2616 7.61721 51.4307 7.52908ZM49.7754 12.9295C48.8329 17.6545 43.695 43.4454 42.915 47.1629L32.5732 37.5974L25.5566 43.5398L27.5 35.9373C27.5 35.9373 40.9064 22.3669 41.7139 21.5769C42.3639 20.9444 42.5 20.7227 42.5 20.5027C42.5 20.2102 42.3495 19.9998 42.002 19.9998C41.6895 19.9998 41.265 20.2992 41.04 20.4392C38.1817 22.2213 26.0102 29.1554 20.0195 32.5633L11.3281 29.0916L15.5469 27.3191C26.2944 22.7941 45.4354 14.7345 49.7754 12.9295Z" fill="#462F29"/>
</g>
</svg>
