<svg width="24" height="22" viewBox="0 0 24 22" fill="none" xmlns="http://www.w3.org/2000/svg">
<path d="M22.2872 0.013025C21.8883 -0.030061 21.4547 0.0333838 21.019 0.208783C20.4788 0.425129 12.0154 4.05065 4.12596 7.43273L1.5191 8.54999C0.509669 8.96679 0 9.64465 0 10.5577C0 11.197 0.265674 12.064 1.53317 12.575L5.93341 14.3702C6.3139 15.5326 7.19765 18.2316 7.4197 18.949C7.55173 19.3744 7.88522 20.446 8.72781 20.6965C8.90065 20.7564 9.08102 20.7873 9.26466 20.7873C9.79638 20.7873 10.1792 20.5353 10.3665 20.3886L13.1632 17.9798L16.5601 21.1788C16.6909 21.3144 17.3834 22 18.3136 22C19.4743 22 20.3547 21.0161 20.5384 20.0639C20.638 19.542 23.9142 2.79416 23.9142 2.79661C24.2082 1.45331 23.6795 0.756466 23.3398 0.459449C23.0487 0.205823 22.6862 0.0561108 22.2872 0.013025ZM21.4925 2.65337C21.04 4.96351 18.5733 17.5731 18.1988 19.3907L13.2336 14.714L9.8648 17.6193L10.7978 13.9023C10.7978 13.9023 17.2344 7.26751 17.6221 6.88127C17.9341 6.57203 17.9995 6.46363 17.9995 6.35606C17.9995 6.21306 17.9272 6.11017 17.7604 6.11017C17.6104 6.11017 17.4066 6.25658 17.2986 6.32503C15.9262 7.1963 10.0826 10.5865 7.20637 12.2527L3.03352 10.5553L5.05899 9.68873C10.219 7.47637 19.4088 3.53587 21.4925 2.65337Z" fill="#462F29"/>
</svg>
