<svg width="60" height="60" viewBox="0 0 60 60" fill="none" xmlns="http://www.w3.org/2000/svg">
<g id="WhatsApp">
<path id="Vector" d="M30.0293 5C16.2643 5 5.05871 16.1959 5.05371 29.9609C5.05121 34.3609 6.20367 38.6564 8.38867 42.4414L5 55L18.0811 51.9092C21.7286 53.8992 25.8346 54.9438 30.0146 54.9463H30.0244C43.7869 54.9463 54.9876 43.7479 54.9951 29.9854C55.0001 23.3129 52.4054 17.0393 47.6904 12.3193C42.9754 7.60184 36.7093 5.0025 30.0293 5ZM30.0244 10C35.3644 10.0025 40.3828 12.0845 44.1553 15.8545C47.9278 19.6295 50.0001 24.6455 49.9951 29.9805C49.9901 40.9905 41.0345 49.9463 30.0195 49.9463C26.687 49.9438 23.386 49.107 20.4785 47.5195L18.7939 46.6016L16.9336 47.041L12.0117 48.2031L13.2129 43.7402L13.7549 41.7383L12.7197 39.9414C10.9747 36.9214 10.0512 33.4684 10.0537 29.9609C10.0587 18.9559 19.0169 10 30.0244 10ZM21.1914 18.4375C20.7739 18.4375 20.0989 18.5938 19.5264 19.2188C18.9539 19.8413 17.3389 21.3489 17.3389 24.4189C17.3389 27.4889 19.5752 30.4565 19.8877 30.874C20.1977 31.289 24.2044 37.7881 30.5469 40.2881C35.8169 42.3656 36.8872 41.9556 38.0322 41.8506C39.1772 41.7481 41.7261 40.3442 42.2461 38.8867C42.7661 37.4292 42.7673 36.1755 42.6123 35.918C42.4573 35.658 42.041 35.5029 41.416 35.1904C40.7935 34.8779 37.7258 33.3716 37.1533 33.1641C36.5808 32.9566 36.1621 32.8516 35.7471 33.4766C35.3321 34.1016 34.1394 35.503 33.7744 35.918C33.4094 36.3355 33.0469 36.3916 32.4219 36.0791C31.7969 35.7641 29.7873 35.1035 27.4023 32.9785C25.5473 31.326 24.2957 29.2871 23.9307 28.6621C23.5682 28.0396 23.8965 27.6977 24.209 27.3877C24.489 27.1077 24.8291 26.6589 25.1416 26.2939C25.4516 25.9289 25.5591 25.6689 25.7666 25.2539C25.9741 24.8389 25.8679 24.4727 25.7129 24.1602C25.5579 23.8477 24.3441 20.7662 23.7891 19.5312C23.3216 18.4937 22.8278 18.4696 22.3828 18.4521C22.0203 18.4371 21.6064 18.4375 21.1914 18.4375Z" fill="#462F29"/>
</g>
</svg>
